{"title":"Faith of Our Fathers 2015 DVDRip","uid":12520373,"size":1477973242,"categoryP":"video","categoryS":"movies","magnet":"?xt=urn:btih:fa902785f2f9d49ae3872b5b69d1f36e181649ed&amp;dn=Faith+of+Our+Fathers+2015+DVDRip&amp;tr=udp%3A%2F%2Ftracker.leechers-paradise.org%3A6969&amp;tr=udp%3A%2F%2Fzer0day.ch%3A1337&amp;tr=udp%3A%2F%2Fopen.demonii.com%3A1337&amp;tr=udp%3A%2F%2Ftracker.coppersurfer.tk%3A6969&amp;tr=udp%3A%2F%2Fexodus.desync.com%3A6969","seeders":0,"leechers":1,"uploader":"Joker__TPB","files":5,"time":1443862417,"description":"===================================================================================\r\nWith the Vietnam War raging in 1969| two young fathers report for duty. A man of great faith and a doubtful cynic. A quarter-century later| their sons| Wayne and\r\nJohn Paul (David A.R. White and Kevin Downes)| meet as strangers. Guided by handwritten letters from their fathers from the battlefield| they embark on an\r\nunforgettable journey to The Wall-the Vietnam Veterans Memorial in Washington| D.C. Along the way| they discover the devastation of war cannot break the love of a\r\nfather for his son.\r\n===================================================================================\r\nVideo\r\nID                                       : 0\r\nFormat                                   : MPEG-4 Visual\r\nFormat profile                           :   \r\nFormat settings, BVOP                    : No\r\nFormat settings, QPel                    : No\r\nFormat settings, GMC                     : No warppoints\r\nFormat settings, Matrix                  : Default (H.263)\r\nCodec ID                                 : XVID\r\nCodec ID/Hint                            : XviD\r\nDuration                                 : 1h 35mn\r\nBit rate                                 : 1 595 Kbps\r\nWidth                                    : 720 pixels\r\nHeight                                   : 400 pixels\r\nDisplay aspect ratio                     : 16:9\r\nFrame rate                               : 23.976 fps\r\nColor space                              : YUV\r\nChroma subsampling                       : 4:2:0\r\nBit depth                                : 8 bits\r\nScan type                                : Progressive\r\nCompression mode                         : Lossy\r\nBits/(Pixel*Frame)                       : 0.231\r\nStream size                              : 1.07 GiB (78%)\r\nWriting library                          : Lavc56.58.100\r\n\r\nAudio\r\nID                                       : 1\r\nFormat                                   : AC-3\r\nFormat/Info                              : Audio Coding 3\r\nMode extension                           : CM (complete main)\r\nFormat settings, Endianness              : Big\r\nCodec ID                                 : 2000\r\nDuration                                 : 1h 35mn\r\nBit rate mode                            : Constant\r\nBit rate                                 : 448 Kbps\r\nChannel(s)                               : 6 channels\r\nChannel positions                        : Front: L C R, Side: L R, LFE\r\nSampling rate                            : 48.0 KHz\r\nCompression mode                         : Lossy\r\nStream size                              : 307 MiB (22%)\r\nAlignment                                : Aligned on interleaves\r\nInterleave, duration                     : 42 ms (1.00 video frame)\r\nInterleave, preload duration             : 512 ms\r\n===================================================================================","torrent":{"xt":"urn:btih:fa902785f2f9d49ae3872b5b69d1f36e181649ed","amp;dn":"Faith+of+Our+Fathers+2015+DVDRip","amp;tr":["udp%3A%2F%2Ftracker.leechers-paradise.org%3A6969","udp%3A%2F%2Fzer0day.ch%3A1337","udp%3A%2F%2Fopen.demonii.com%3A1337","udp%3A%2F%2Ftracker.coppersurfer.tk%3A6969","udp%3A%2F%2Fexodus.desync.com%3A6969"],"infoHash":"fa902785f2f9d49ae3872b5b69d1f36e181649ed","infoHashBuffer":{"type":"Buffer","data":[250,144,39,133,242,249,212,154,227,135,43,91,105,209,243,110,24,22,73,237]},"announce":[],"urlList":[]}}